<svg xmlns="http://www.w3.org/2000/svg" viewBox="0 0 372.44 94.08"><defs><style>.cls-1{fill:#acacac;}.cls-2{fill:#fff;}</style></defs><title>Asset 1</title><g id="Layer_2" data-name="Layer 2"><g id="Layer_1-2" data-name="Layer 1"><path class="cls-1" d="M15.48,3.57V34.26h-2.6V3.57H0V1.28H28.35V3.57Z"/><path class="cls-1" d="M35.1,15.61a7.9,7.9,0,0,1,7.32-4.06c5,0,8.6,3.58,8.6,9V34.26H48.55V20.86c0-4.19-2.69-7-6.52-7a6.87,6.87,0,0,0-6.93,7v13.4H32.64V0H35.1Z"/><path class="cls-1" d="M59.23,24c.13,5.38,3.61,8.47,8.16,8.47,3.88,0,6.52-1.81,7.36-4.89l2.47.17c-1,4.1-4.63,6.88-9.75,6.88-6.17,0-10.84-4.23-10.84-11.55s4.58-11.56,10.76-11.56c6.39,0,10,4.41,10,10.9V24Zm0-2.07H75c0-4.76-2.61-8.2-7.68-8.2C62.84,13.76,59.4,16.62,59.23,22Z"/><path class="cls-1" d="M123.79,34.26,114,6.09l-9.75,28.17h-2.2L90.5,1.28h2.86l9.84,28.49,9.74-28.49h2.16l9.79,28.49,9.84-28.49h2.77l-11.5,33Z"/><path class="cls-1" d="M144.61,15.61a7.89,7.89,0,0,1,7.32-4.06c5,0,8.6,3.58,8.6,9V34.26h-2.47V20.86c0-4.19-2.69-7-6.53-7a6.87,6.87,0,0,0-6.92,7v13.4h-2.47V0h2.47Z"/><path class="cls-1" d="M170.85,3.48A1.86,1.86,0,0,1,169,5.29a1.82,1.82,0,0,1-1.81-1.81,1.83,1.83,0,1,1,3.66,0Zm-3.09,30.78V12h2.47V34.26Z"/><path class="cls-1" d="M192.15,17.86l-2.47.18c-.35-2.65-2.16-4.33-5.38-4.28-3.53,0-5.2,1.63-5.2,4.1,0,2.91,2.42,3.09,5.86,3.88,4.85,1.15,7.81,2.34,7.81,6.31,0,4.36-3.31,6.61-8.12,6.61s-7.89-2.25-8.51-6.35l2.47-.18c.49,2.91,2.74,4.37,6.09,4.37s5.6-1.37,5.6-4.28-1.9-3.44-6.35-4.45c-4.15-1-7.32-1.59-7.32-5.87,0-3.74,2.69-6.35,7.76-6.3C189.06,11.55,191.62,14.16,192.15,17.86Z"/><path class="cls-1" d="M220.81,23.11c0,7.27-4.76,11.55-10.8,11.55-4.19,0-7.14-1.94-8.42-4.54V45.51h-2.47V12h2.34v4.32c1.32-2.69,4.32-4.72,8.55-4.72C216.05,11.55,220.81,15.83,220.81,23.11Zm-19.22-.75V23.9c0,5.78,3.53,8.6,8.2,8.6s8.55-3.31,8.55-9.35-3.79-9.39-8.55-9.39S201.59,16.54,201.59,22.36Z"/><path class="cls-1" d="M227.87,24c.13,5.38,3.62,8.47,8.16,8.47,3.88,0,6.53-1.81,7.36-4.89l2.47.17c-1,4.1-4.63,6.88-9.74,6.88-6.18,0-10.85-4.23-10.85-11.55S229.86,11.55,236,11.55c6.39,0,10.05,4.41,10.05,10.9V24Zm0-2.07h15.79c0-4.76-2.6-8.2-7.67-8.2C231.49,13.76,228.05,16.62,227.87,22Z"/><path class="cls-1" d="M261.3,14a6.45,6.45,0,0,0-6.7,6.66V34.26h-2.47V12h2.38v3.66c.75-1.94,3-4,6.79-4Z"/><path class="cls-1" d="M268.71,3.48a1.86,1.86,0,0,1-1.85,1.81,1.82,1.82,0,0,1-1.81-1.81,1.83,1.83,0,1,1,3.66,0Zm-3.09,30.78V12h2.47V34.26Z"/><path class="cls-1" d="M294.2,20.55V34.26h-2.47V20.86c0-4.19-2.69-7-6.53-7a6.87,6.87,0,0,0-6.92,7v13.4h-2.47V12h2.38v3.79a8,8,0,0,1,7.41-4.19C290.58,11.55,294.2,15.13,294.2,20.55Z"/><path class="cls-1" d="M319.47,16.27V12h2.38V35.76c0,6.4-4.28,10.1-10.41,10.1-5.91,0-9.52-3.17-10.49-7.54l2.51-.09c.66,3.44,4,5.56,7.9,5.56,4.71,0,8-2.78,8-7.85V30.12c-1.28,2.6-4.23,4.54-8.42,4.54-6.09,0-10.81-4.28-10.81-11.55S304.87,11.55,311,11.55C315.19,11.55,318.19,13.58,319.47,16.27Zm-16.85,6.88c0,6,3.75,9.35,8.56,9.35,4.63,0,8.16-2.82,8.16-8.6V22.36c0-5.82-3.53-8.6-8.16-8.6C306.37,13.76,302.62,17,302.62,23.15Z"/><path class="cls-2" d="M15.92,60.66c5.78,0,10,2.91,10,9,0,3.44-1.46,5.69-3.7,6.79,2.86.92,5.11,3.57,5.11,7.89,0,6.26-4.41,9.35-10.36,9.35H3v-33ZM8.16,74.5h7.89c2.69,0,4.54-1.28,4.54-4.54s-2.16-4.67-5.29-4.67H8.16ZM8.16,89h8.2C19.49,89,22,87.56,22,84s-2.51-5-5.38-5H8.16Z"/><path class="cls-2" d="M55,82.35c0,7.15-5.07,11.73-11.77,11.73S31.4,89.5,31.4,82.35s5.07-11.73,11.82-11.73S55,75.16,55,82.35Zm-18.56,0c0,4.68,2.86,7.45,6.79,7.45S50,87,50,82.35s-2.91-7.5-6.79-7.5S36.43,77.63,36.43,82.35Z"/><path class="cls-2" d="M65.05,73.75c1.23-1.76,3.79-3.13,7.19-3.13,6.3,0,10.89,4.5,10.89,11.73S78.54,94.08,72.24,94.08c-3.53,0-6.22-1.5-7.46-3.57v3.13H60.11V59.38h4.94Zm0,8v1.2c0,4.49,2.69,6.87,6.39,6.87s6.66-2.64,6.66-7.45-2.82-7.5-6.66-7.5S65.05,77.28,65.05,81.73Z"/><path class="cls-2" d="M118.72,93.64V79H103.2V93.64H98v-33h5.25V74.28h15.52V60.66H124v33Z"/><path class="cls-2" d="M147.78,79.57V93.64h-5v-2a8.71,8.71,0,0,1-6.13,2.47c-4.5,0-7.54-2.38-7.54-6.61,0-4.85,3.66-6.57,8.29-6.84l5.38-.31v-.66c0-2.91-1.24-4.72-4-4.72s-4.06,1.81-4.06,3.84l-5-.18c0-4,3.35-8,9-8C144.56,70.62,147.78,73.8,147.78,79.57Zm-9.66,4.9c-2.33.13-4,.88-4,2.91s1.41,2.56,3.4,2.56c3.13,0,5.33-1.55,5.33-5v-.79Z"/><path class="cls-2" d="M165.29,75.56c-3.88,0-6.31,2.47-6.31,5.78v12.3h-4.93V71h4.8v3.17c.84-1.76,2.82-3.44,6.44-3.44Z"/><path class="cls-2" d="M180.37,75.56c-3.88,0-6.3,2.47-6.3,5.78v12.3h-4.94V71h4.81v3.17c.83-1.76,2.82-3.44,6.43-3.44Z"/><path class="cls-2" d="M189.81,63.17a3.11,3.11,0,0,1-3.13,3.09,3.07,3.07,0,0,1-3.09-3.09,3.11,3.11,0,0,1,6.22,0Zm-5.6,30.47V71h4.94V93.64Z"/><path class="cls-2" d="M211.6,77.81l-4.94.26c-.18-1.89-1.37-3.22-3.88-3.22-2.34,0-3.53,1-3.53,2.52,0,1.94,1.94,2.12,4.94,2.82,4.67,1.19,7.8,2.6,7.8,6.66,0,4.54-3.35,7.23-8.86,7.23s-8.73-2.73-9.26-7.23l4.94-.31c.26,2.07,1.72,3.26,4.41,3.26,2.25,0,3.83-.88,3.83-2.55,0-1.85-1.19-2.3-4.89-3.18-4.59-1.1-7.85-2.07-7.85-6.61,0-4.06,3.13-6.84,8.6-6.84S211.16,73.8,211.6,77.81Z"/><path class="cls-1" d="M251.15,93.64l-3.88-9.57h-16l-3.92,9.57h-2.87l13.63-33h2.25l13.62,33ZM246.3,81.87l-7-17.2-7,17.2Z"/><path class="cls-1" d="M267.56,73.4a6.45,6.45,0,0,0-6.7,6.66V93.64h-2.47V71.33h2.38V75c.75-1.94,3-4,6.79-4Z"/><path class="cls-1" d="M290.45,79.13l-2.43.22c-.44-3.92-3.43-6.26-7.36-6.26-4.72,0-8.2,3.35-8.2,9.39s3.57,9.4,8.24,9.4c4.06,0,6.8-2.21,7.37-5.78l2.42.18C289.66,91.08,286,94,280.7,94c-6.13,0-10.76-4.19-10.76-11.56s4.59-11.55,10.72-11.55C285.86,70.93,289.83,74.06,290.45,79.13Z"/><path class="cls-1" d="M298.52,75c.93-2,3.49-4.06,7.32-4.06,5,0,8.6,3.57,8.6,9V93.64H312V80.23c0-4.18-2.69-7-6.52-7a6.88,6.88,0,0,0-6.93,7V93.64h-2.47V59.38h2.47Z"/><path class="cls-1" d="M324.76,62.86a1.85,1.85,0,0,1-1.85,1.81,1.82,1.82,0,0,1-1.81-1.81,1.83,1.83,0,1,1,3.66,0Zm-3.08,30.78V71.33h2.47V93.64Z"/><path class="cls-1" d="M337.9,93.64l-9.65-22.31H331l7.94,18.56,7.85-18.56h2.78l-9.66,22.31Z"/><path class="cls-1" d="M354.22,83.41c.14,5.38,3.62,8.47,8.16,8.47,3.88,0,6.53-1.81,7.37-4.9l2.47.18c-1,4.1-4.63,6.88-9.75,6.88-6.17,0-10.85-4.24-10.85-11.56s4.59-11.55,10.76-11.55c6.4,0,10.06,4.41,10.06,10.89v1.59Zm0-2.07H370c0-4.76-2.6-8.2-7.67-8.2C357.84,73.14,354.4,76,354.22,81.34Z"/></g></g></svg>